<svg xmlns="http://www.w3.org/2000/svg" width="700pt" height="700pt" class="fill-orange-400" viewBox="0 0 700 700"><path d="M472.4 307.68c-12.094 11.43-20.582 26.668-20.582 43.309v5.379c0 28.117-22.789 50.91-50.906 50.91h-101.82c-28.117 0-50.906-22.793-50.906-50.91v-5.379c0-16.641-8.488-31.879-20.582-43.309-34.352-32.488-55.785-78.484-55.785-129.49 0-98.41 79.777-178.18 178.18-178.18s178.18 79.773 178.18 178.18c0 51.008-21.434 97.004-55.785 129.49zm-34.98-36.996c24.609-23.266 39.855-56.059 39.855-92.496 0-70.293-56.984-127.27-127.27-127.27s-127.27 56.98-127.27 127.27c0 36.438 15.246 69.23 39.855 92.496 19.172 18.133 36.508 45.926 36.508 80.305v5.379h101.82v-5.379c0-34.379 17.336-62.172 36.508-80.305zM273.64 458.18c0-14.059 11.398-25.457 25.453-25.457h101.82c14.055 0 25.453 11.398 25.453 25.457 0 14.055-11.398 25.453-25.453 25.453h-101.82c-14.055 0-25.453-11.398-25.453-25.453zM324.55 509.09c-14.059 0-25.457 11.398-25.457 25.457 0 14.055 11.398 25.453 25.457 25.453h50.906c14.059 0 25.457-11.398 25.457-25.453 0-14.059-11.398-25.457-25.457-25.457z"/></svg>
